<?xml version="1.0" encoding="utf-8"?>
<!-- Generator: Adobe Illustrator 22.1.0, SVG Export Plug-In . SVG Version: 6.00 Build 0)  -->
<svg version="1.1" id="Layer_1" xmlns="http://www.w3.org/2000/svg" xmlns:xlink="http://www.w3.org/1999/xlink" x="0px" y="0px"
	 viewBox="0 0 32 32" style="enable-background:new 0 0 32 32;" xml:space="preserve">
<g id="surface1">
	<path d="M15.9,0.3C7.1,0.3-0.1,7.5-0.1,16.4c0,7.1,4.6,13.1,11,15.2c0.8,0.1,1.1-0.3,1.1-0.8c0-0.4,0-1.4,0-2.7
		c-4.5,1-5.4-2.2-5.4-2.2c-0.7-1.9-1.8-2.4-1.8-2.4c-1.5-1,0.1-1,0.1-1c1.6,0.1,2.5,1.7,2.5,1.7c1.4,2.5,3.8,1.7,4.7,1.3
		c0.1-1,0.6-1.7,1-2.1c-3.6-0.4-7.3-1.8-7.3-7.9c0-1.8,0.6-3.2,1.7-4.3c-0.2-0.4-0.7-2,0.2-4.2c0,0,1.3-0.4,4.4,1.6
		c1.3-0.4,2.7-0.5,4-0.5c1.4,0,2.7,0.2,4,0.5C23,6.6,24.4,7,24.4,7c0.9,2.2,0.3,3.8,0.2,4.2c1,1.1,1.6,2.6,1.6,4.3
		c0,6.2-3.8,7.5-7.3,7.9c0.6,0.5,1.1,1.5,1.1,3c0,2.1,0,3.9,0,4.4c0,0.4,0.3,0.9,1.1,0.8c6.4-2.1,11-8.1,11-15.2
		C32,7.5,24.8,0.3,15.9,0.3z"/>
</g>
</svg>
