<?xml version="1.0" encoding="utf-8"?>
<!-- Generator: Adobe Illustrator 22.1.0, SVG Export Plug-In . SVG Version: 6.00 Build 0)  -->
<svg version="1.1" id="Layer_1" xmlns="http://www.w3.org/2000/svg" xmlns:xlink="http://www.w3.org/1999/xlink" x="0px" y="0px"
	 viewBox="0 0 48 48" style="enable-background:new 0 0 48 48;" xml:space="preserve">
<style type="text/css">
	.st0{fill:#48A0DC;}
	.st1{fill:#FFFFFF;}
</style>
<path class="st0" d="M24,4C12.9,4,4,12.9,4,24s8.9,20,20,20s20-9,20-20S35,4,24,4z M26,38h-4v-4h4V38z M30.1,22.5l-1.8,1.8
	C26.9,25.8,26,27,26,30h-4v-1c0-2.2,0.9-4.2,2.3-5.7l2.5-2.5c0.7-0.7,1.2-1.7,1.2-2.8c0-2.2-1.8-4-4-4s-4,1.8-4,4h-4
	c0-4.4,3.6-8,8-8s8,3.6,8,8C32,19.8,31.3,21.4,30.1,22.5z"/>
<path class="st1" d="M30.1,22.5l-1.8,1.8C26.9,25.8,26,27,26,30h-4v-1c0-2.2,0.9-4.2,2.3-5.7l2.5-2.5c0.7-0.7,1.2-1.7,1.2-2.8
	c0-2.2-1.8-4-4-4s-4,1.8-4,4h-4c0-4.4,3.6-8,8-8s8,3.6,8,8C32,19.8,31.3,21.4,30.1,22.5z"/>
<rect x="22" y="34" class="st1" width="4" height="4"/>
</svg>
