<svg xmlns="http://www.w3.org/2000/svg" width="29" height="29.793" viewBox="0 0 29 29.793"><g transform="translate(0.008)"><path d="M25.548,16.353a13.5,13.5,0,0,0,.1-1.482,14.437,14.437,0,0,0-.1-1.482l3.168-2.453a.707.707,0,0,0,.153-.971l-2.964-5.11a.719.719,0,0,0-.92-.307L21.255,6.03a11.158,11.158,0,0,0-2.5-1.482L18.189.613A.681.681,0,0,0,17.473,0H11.494a.717.717,0,0,0-.715.613L10.217,4.6a9.527,9.527,0,0,0-2.5,1.482L3.982,4.548a.737.737,0,0,0-.92.307L.1,10.016a.738.738,0,0,0,.2.971L3.471,13.44a13.5,13.5,0,0,0-.1,1.482,14.438,14.438,0,0,0,.1,1.482L.3,18.857a.771.771,0,0,0-.2.971l2.964,5.11a.737.737,0,0,0,.92.307l3.731-1.482a11.158,11.158,0,0,0,2.5,1.482l.562,3.935a.717.717,0,0,0,.715.613h5.979a.717.717,0,0,0,.715-.613l.562-3.935a9.527,9.527,0,0,0,2.5-1.482l3.731,1.482a.737.737,0,0,0,.92-.307l2.964-5.161a.783.783,0,0,0-.153-.971ZM14.509,20.135a5.213,5.213,0,1,1,5.213-5.213A5.234,5.234,0,0,1,14.509,20.135Z" transform="translate(0)" fill="#d1d1d1"/></g></svg>