<svg xmlns="http://www.w3.org/2000/svg" width="25.044" height="17.874" viewBox="0 0 25.044 17.874"><path d="M18.5,17.85s-.77-.922-1.419-1.718A6.818,6.818,0,0,0,20.965,13.6,12.444,12.444,0,0,1,18.5,14.865a15.354,15.354,0,0,1-3.112.922,15.1,15.1,0,0,1-5.559-.02,16.6,16.6,0,0,1-3.157-.922,12.884,12.884,0,0,1-1.566-.73c-.066-.041-.127-.066-.193-.106-.041-.02-.066-.041-.086-.041-.385-.213-.6-.365-.6-.365a6.678,6.678,0,0,0,3.755,2.508c-.644.816-1.439,1.758-1.439,1.758C1.8,17.723,0,14.632,0,14.632A28.335,28.335,0,0,1,3.091,2.226,10.632,10.632,0,0,1,9.1,0l.213.258A14.1,14.1,0,0,0,3.689,3.047s.471-.258,1.267-.6a16.844,16.844,0,0,1,4.87-1.353,2.234,2.234,0,0,1,.365-.041,17.727,17.727,0,0,1,10.794,2A14.1,14.1,0,0,0,15.644.341l.3-.345a10.589,10.589,0,0,1,6.01,2.23,28.335,28.335,0,0,1,3.091,12.406A7.858,7.858,0,0,1,18.5,17.85ZM16.455,7.917a2.27,2.27,0,0,0-2.189,2.362,2.283,2.283,0,0,0,2.189,2.362,2.27,2.27,0,0,0,2.189-2.362A2.283,2.283,0,0,0,16.455,7.917Zm-7.835,0a2.27,2.27,0,0,0-2.189,2.362A2.283,2.283,0,0,0,8.62,12.64a2.27,2.27,0,0,0,2.189-2.362A2.251,2.251,0,0,0,8.62,7.917Z" transform="translate(0 0.004)" fill="#fff"/></svg>