<?xml version="1.0" encoding="utf-8"?>
<!-- Generator: Adobe Illustrator 22.1.0, SVG Export Plug-In . SVG Version: 6.00 Build 0)  -->
<svg version="1.1" id="Layer_1" xmlns="http://www.w3.org/2000/svg" xmlns:xlink="http://www.w3.org/1999/xlink" x="0px" y="0px"
	 viewBox="0 0 370 367" style="enable-background:new 0 0 370 367;" xml:space="preserve">
<style type="text/css">
	.st0{fill:#B59940;}
	.st1{fill:#6600CC;}
</style>
<g>
	<g>
		<ellipse class="st0" cx="185" cy="183.5" rx="185" ry="183.5"/>
		<g>
			<ellipse class="st1" cx="185" cy="183.5" rx="178" ry="178"/>
			<ellipse class="st0" cx="185" cy="183.5" rx="168" ry="168"/>
		</g>
	</g>
	<g>
		<path class="st1" d="M165.2,17.4c14.8,19,21.5,40.9,8.8,69.8s-46.5,74.1-73.6,122.5c-54.3,96.9,63.1,145.7,72.8,146.7
			c9.7,0.9-47.2-37-29.2-94.7s59.5-90.1,71.2-134.1C226.9,83.6,135.6-20.5,165.2,17.4L165.2,17.4z"/>
		<path class="st1" d="M230.9,131.6c2.9,6.2,4.3,17.6,1.1,31.1c-3.3,13.5-7.9,23.5-18,39.9c-5,8.2-16.4,24-22.3,33.1
			c-5.9,9.1-7.7,11.5-17.3,29c-19.1,35,19.4,69.5,12.1,57.6c-7.3-11.9,2.9-35,13.1-50.5c10.2-15.5,17.1-22.7,27.1-37.7
			s20-38.5,20.1-51.5s-0.6-17.2-5.6-31.2C236.3,137.5,225,119.1,230.9,131.6L230.9,131.6z"/>
		<path class="st1" d="M206.2,350.9c-4.2,8.1-5.4-17.1,2.1-39s22.4-34.5,38-61.8c7.8-13.7,14.5-27.4,17.2-39.6s2.6-22.7-1.1-29.2
			c-7.3-13,0.3-1.1,3.9,4.5s3.8,6.5,6.1,10.6c2.3,4.1,3.8,7.9,4.5,10c0.7,2,3.1,7.1,3.9,21.5s-8.4,48.8-39.4,79.8
			C210.5,338.6,210.5,342.8,206.2,350.9L206.2,350.9z"/>
	</g>
</g>
</svg>
