<svg xmlns="http://www.w3.org/2000/svg" xmlns:xlink="http://www.w3.org/1999/xlink" viewBox="0 0 1000 1000"><defs><style>.a{fill:url(#a);}.b{fill:#fff;}</style><linearGradient id="a" x1="1091.51" y1="158.49" x2="-91.51" y2="841.51" gradientUnits="userSpaceOnUse"><stop offset="0" stop-color="#00ffed"/><stop offset="1" stop-color="#0077e9"/></linearGradient></defs><title>MultiRPCLogo</title><rect class="a" width="1000" height="1000"/><path class="b" d="M617.94,676s-15.24-18.21-28-33.88c55.48-15.67,76.65-50,76.65-50a242.81,242.81,0,0,1-48.7,25,304.4,304.4,0,0,1-61.4,18.21,296.72,296.72,0,0,1-109.69-.43,322.36,322.36,0,0,1-62.25-18.21,248.08,248.08,0,0,1-30.92-14.4c-1.27-.84-2.54-1.27-3.81-2.11-.84-.43-1.27-.85-1.69-.85-7.62-4.24-11.86-7.2-11.86-7.2s20.33,33.46,74.11,49.55c-12.7,16.09-28.37,34.72-28.37,34.72-93.59-3-129.17-63.94-129.17-63.94,0-135.09,61-244.78,61-244.78,61-45.31,118.57-44,118.57-44l4.24,5.08c-76.23,21.6-111,55.05-111,55.05s9.32-5.08,25-11.85C396,352,432,346.91,446.85,345.22a41.11,41.11,0,0,1,7.2-.85,358.13,358.13,0,0,1,85.55-.85,352.22,352.22,0,0,1,127.47,40.23S633.61,352,561.62,330.39l5.93-6.77s58-1.27,118.57,44c0,0,61,109.69,61,244.78,0-.43-35.58,60.56-129.17,63.52ZM577.59,479.89c-24.14,0-43.19,20.75-43.19,46.58s19.48,46.58,43.19,46.58c24.14,0,43.2-20.75,43.2-46.58S601.31,479.89,577.59,479.89Zm-154.57,0c-24.14,0-43.2,20.75-43.2,46.58s19.48,46.58,43.2,46.58c24.14,0,43.2-20.75,43.2-46.58C466.64,500.64,447.16,479.89,423,479.89Z"/></svg>