<?xml version="1.0" ?><svg id="Layer_1" style="enable-background:new 0 0 512 512;" version="1.1" viewBox="0 0 512 512" xml:space="preserve" xmlns="http://www.w3.org/2000/svg" xmlns:xlink="http://www.w3.org/1999/xlink"><g id="XMLID_4058_"><polygon id="XMLID_4060_" points="339.7,6 339.7,112.8 448.3,112.8  "/><path d="M367.6,338.6L367.6,338.6c0-49.1-39.8-88.9-88.9-88.9h-215v177.8h215   C327.8,427.5,367.6,387.7,367.6,338.6z M159.5,386.1H103v-90h56.1v12.1H118v25.4h35.2v12.1H118v28.5h41.5V386.1z M223.6,386.1   L204,352.3l-19.5,33.8h-17.8l28.3-45.4l-27.7-44.6H185l18.8,33.3l19-33.3h17.8l-27.7,44.6l28.7,45.4H223.6z M253.4,296.1h56.1v12.1   h-41.1v25.4h35.2v12.1h-35.2v28.5H310v12h-56.6V296.1z" id="XMLID_4119_"/><path d="M327.7,6.3H81v231.3h197.7c55.6,0,100.9,45.3,100.9,100.9s-45.3,100.9-100.9,100.9H81V506h366.7   l0.6-381.2H327.7V6.3z" id="XMLID_4122_"/></g></svg>