<?xml version="1.0" encoding="UTF-8" standalone="no"?>
<!DOCTYPE svg PUBLIC "-//W3C//DTD SVG 1.1//EN" "http://www.w3.org/Graphics/SVG/1.1/DTD/svg11.dtd">
<svg width="100%" height="100%" viewBox="0 0 56 58" version="1.1" xmlns="http://www.w3.org/2000/svg" xmlns:xlink="http://www.w3.org/1999/xlink" xml:space="preserve" xmlns:serif="http://www.serif.com/" style="fill-rule:evenodd;clip-rule:evenodd;stroke-linejoin:round;stroke-miterlimit:2;">
    <g transform="matrix(1.93103,0,0,1.93103,0.0154483,0)">
        <path d="M25.548,16.353C25.609,15.861 25.642,15.366 25.648,14.871C25.64,14.376 25.607,13.881 25.548,13.389L28.716,10.936C29.019,10.708 29.087,10.275 28.869,9.965L25.905,4.855C25.725,4.532 25.323,4.398 24.985,4.548L21.255,6.03C20.49,5.429 19.649,4.931 18.755,4.548L18.189,0.613C18.153,0.252 17.835,-0.02 17.473,0L11.494,0C11.138,-0.003 10.831,0.26 10.779,0.613L10.217,4.6C9.313,4.963 8.47,5.463 7.717,6.082L3.982,4.548C3.643,4.406 3.248,4.538 3.062,4.855L0.1,10.016C-0.092,10.341 -0.005,10.764 0.3,10.987L3.471,13.44C3.41,13.932 3.377,14.427 3.371,14.922C3.379,15.417 3.412,15.912 3.471,16.404L0.3,18.857C0.008,19.088 -0.077,19.5 0.1,19.828L3.064,24.938C3.25,25.255 3.645,25.387 3.984,25.245L7.715,23.763C8.48,24.364 9.321,24.862 10.215,25.245L10.777,29.18C10.829,29.533 11.136,29.796 11.492,29.793L17.471,29.793C17.827,29.796 18.134,29.533 18.186,29.18L18.748,25.245C19.652,24.882 20.495,24.382 21.248,23.763L24.979,25.245C25.318,25.387 25.713,25.255 25.899,24.938L28.863,19.777C29.046,19.459 28.982,19.052 28.71,18.806L25.548,16.353ZM14.509,20.135C11.649,20.135 9.296,17.782 9.296,14.922C9.296,12.062 11.649,9.709 14.509,9.709C17.369,9.709 19.722,12.062 19.722,14.922C19.711,17.777 17.364,20.124 14.509,20.135Z" style="fill:white;fill-rule:nonzero;"/>
    </g>
</svg>
