<?xml version="1.0" encoding="UTF-8" standalone="no"?><!DOCTYPE svg PUBLIC "-//W3C//DTD SVG 1.1//EN" "http://www.w3.org/Graphics/SVG/1.1/DTD/svg11.dtd"><svg width="100%" height="100%" viewBox="0 0 488 488" version="1.1" xmlns="http://www.w3.org/2000/svg" xmlns:xlink="http://www.w3.org/1999/xlink" xml:space="preserve" xmlns:serif="http://www.serif.com/" style="fill-rule:evenodd;clip-rule:evenodd;stroke-linejoin:round;stroke-miterlimit:2;"><circle cx="243.054" cy="243.054" r="243.054" style="fill:#2196f3;"/><g><path d="M394.967,364.583c-0,16.779 -13.604,30.384 -30.384,30.384l-243.054,-0c-16.779,-0 -30.383,-13.605 -30.383,-30.384l-0,-227.866c-0,-16.775 13.604,-30.38 30.383,-30.38l243.054,0c16.78,0 30.384,13.605 30.384,30.38l-0,227.866Z" style="fill:#231f20;fill-opacity:0.2;fill-rule:nonzero;"/><g><g><path d="M91.146,163.304l-0,186.088c-0,16.779 13.604,30.383 30.383,30.383l243.054,0c16.78,0 30.384,-13.604 30.384,-30.383l-0,-186.088l-303.821,0Z" style="fill:#fff;fill-rule:nonzero;"/><g><rect x="121.529" y="212.675" width="91.146" height="136.717" style="fill:#4f5d73;"/><g><rect x="243.054" y="212.675" width="121.529" height="15.192" style="fill:#e0e0d1;"/><rect x="243.054" y="243.054" width="121.529" height="15.192" style="fill:#e0e0d1;"/><rect x="243.054" y="273.438" width="121.529" height="15.192" style="fill:#e0e0d1;"/><rect x="243.054" y="303.821" width="121.529" height="15.192" style="fill:#e0e0d1;"/><rect x="243.054" y="334.2" width="121.529" height="15.192" style="fill:#e0e0d1;"/></g></g></g><g><g><path d="M394.967,136.717c-0,-16.775 -13.604,-30.38 -30.384,-30.38l-243.054,0c-16.779,0 -30.383,13.605 -30.383,30.38l-0,45.575l303.821,-0l-0,-45.575Z" style="fill:#231f20;fill-opacity:0.2;fill-rule:nonzero;"/><path d="M394.967,121.529c-0,-16.779 -13.604,-30.383 -30.384,-30.383l-243.054,-0c-16.779,-0 -30.383,13.604 -30.383,30.383l-0,45.571l303.821,0l-0,-45.571Z" style="fill:#e0e0d1;fill-rule:nonzero;"/></g><g><circle cx="174.696" cy="129.125" r="15.192" style="fill:#e0995e;"/><circle cx="220.271" cy="129.125" r="15.192" style="fill:#76c2af;"/><circle cx="129.125" cy="129.125" r="15.192" style="fill:#c75c5c;"/></g></g></g></g></svg>