<?xml version="1.0" encoding="UTF-8" standalone="no"?><!DOCTYPE svg PUBLIC "-//W3C//DTD SVG 1.1//EN" "http://www.w3.org/Graphics/SVG/1.1/DTD/svg11.dtd"><svg width="100%" height="100%" viewBox="0 0 122 121" version="1.1" xmlns="http://www.w3.org/2000/svg" xmlns:xlink="http://www.w3.org/1999/xlink" xml:space="preserve" xmlns:serif="http://www.serif.com/" style="fill-rule:evenodd;clip-rule:evenodd;stroke-linejoin:round;stroke-miterlimit:2;"><circle cx="60.488" cy="58.646" r="58.646" style="fill:#2f3136;"/><path d="M91.529,59.879l-2.762,9.688l-27.425,-0l2.762,-9.692l-10.733,0l-2.763,9.688l-3.112,10.9l-11.446,40.083l10.733,-0l11.446,-40.088l27.425,0c6.418,-0.395 11.95,-4.75 13.842,-10.895l2.762,-9.688l-10.729,0.004Z" style="fill:#949fdf;fill-rule:nonzero;"/><path d="M55.308,53.108l48.888,0c0.397,-0.957 0.601,-1.983 0.601,-3.019c-0,-4.327 -3.561,-7.888 -7.888,-7.888c-0.111,0 -0.223,0.003 -0.334,0.007l-38.154,0l-3.113,10.9Z" style="fill:url(#_Linear1);fill-rule:nonzero;"/><path d="M57.017,23.717c-6.418,0.395 -11.95,4.75 -13.842,10.896l-2.162,7.57l-20.65,0l-3.113,10.9l20.65,0l-11.15,38.996l-23.654,0l-3.109,10.9l23.655,0c6.418,-0.395 11.952,-4.75 13.845,-10.896l10.926,-38.27l4.583,-15.984l0.912,-3.208l64.4,-0l3.113,-10.9l-64.404,-0.004Z" style="fill:#947bdf;fill-rule:nonzero;"/><defs><linearGradient id="_Linear1" x1="0" y1="0" x2="1" y2="0" gradientUnits="userSpaceOnUse" gradientTransform="matrix(9.6594e-14,1577.5,-1577.5,9.6594e-14,80.0525,-1524.39)"><stop offset="0" style="stop-color:#947bdf;stop-opacity:1"/><stop offset="1" style="stop-color:#949fdf;stop-opacity:1"/></linearGradient></defs></svg>