<?xml version="1.0" ?><svg enable-background="new 0 0 64 64" height="64px" version="1.1" viewBox="0 0 64 64" width="64px" xml:space="preserve" xmlns="http://www.w3.org/2000/svg" xmlns:xlink="http://www.w3.org/1999/xlink"><g id="Layer_1"><g><circle cx="32" cy="32" fill="#77B3D4" r="32"/></g><g opacity="0.2"><path d="M52,48c0,2.209-1.791,4-4,4H16c-2.209,0-4-1.791-4-4V18c0-2.209,1.791-4,4-4h32c2.209,0,4,1.791,4,4V48z" fill="#231F20"/></g><g><path d="M12,21.5V46c0,2.209,1.791,4,4,4h32c2.209,0,4-1.791,4-4V21.5H12z" fill="#FFFFFF"/></g><g opacity="0.2"><path d="M52,18c0-2.209-1.791-4-4-4H16c-2.209,0-4,1.791-4,4v6h40V18z" fill="#231F20"/></g><g><path d="M52,16c0-2.209-1.791-4-4-4H16c-2.209,0-4,1.791-4,4v6h40V16z" fill="#E0E0D1"/></g><g><circle cx="23" cy="17" fill="#E0995E" r="2"/></g><g><circle cx="29" cy="17" fill="#76C2AF" r="2"/></g><g><circle cx="17" cy="17" fill="#C75C5C" r="2"/></g><g><rect fill="#4F5D73" height="18" width="12" x="16" y="28"/></g><g><rect fill="#E0E0D1" height="2" width="16" x="32" y="28"/></g><g><rect fill="#E0E0D1" height="2" width="16" x="32" y="32"/></g><g><rect fill="#E0E0D1" height="2" width="16" x="32" y="36"/></g><g><rect fill="#E0E0D1" height="2" width="16" x="32" y="40"/></g><g><rect fill="#E0E0D1" height="2" width="16" x="32" y="44"/></g></g><g id="Layer_2"/></svg>