<?xml version="1.0" encoding="utf-8"?>
<!-- Generator: Adobe Illustrator 22.1.0, SVG Export Plug-In . SVG Version: 6.00 Build 0)  -->
<svg version="1.1" id="Layer_1" xmlns="http://www.w3.org/2000/svg" xmlns:xlink="http://www.w3.org/1999/xlink" x="0px" y="0px"
	 viewBox="0 0 25 17.9" style="enable-background:new 0 0 25 17.9;" xml:space="preserve">
<style type="text/css">
	.st0{fill:#7289DA;}
</style>
<path class="st0" d="M18.5,17.9c0,0-0.8-0.9-1.4-1.7c1.6-0.4,2.9-1.3,3.9-2.5c-0.8,0.5-1.6,0.9-2.5,1.3c-1,0.4-2,0.7-3.1,0.9
	c-1.8,0.3-3.7,0.3-5.6,0c-1.1-0.2-2.1-0.5-3.2-0.9c-0.5-0.2-1.1-0.5-1.6-0.7C5,14.1,5,14.1,4.9,14c0,0-0.1,0-0.1,0
	c-0.4-0.2-0.6-0.4-0.6-0.4c0.9,1.2,2.3,2.1,3.8,2.5c-0.6,0.8-1.4,1.8-1.4,1.8C1.8,17.7,0,14.6,0,14.6c0.1-4.3,1.1-8.6,3.1-12.4
	c1.7-1.3,3.8-2.1,6-2.2l0.2,0.3c-2.1,0.5-4,1.4-5.6,2.8c0,0,0.5-0.3,1.3-0.6c1.5-0.7,3.2-1.1,4.9-1.4c0.1,0,0.2,0,0.4,0
	c3.7-0.5,7.5,0.2,10.8,2c-1.6-1.3-3.4-2.2-5.3-2.7L15.9,0c2.2,0.1,4.3,0.9,6,2.2c2,3.8,3,8.1,3.1,12.4
	C23.5,16.7,21.1,17.9,18.5,17.9z M16.5,7.9c-1.3,0-2.2,1.1-2.2,2.3c0,0,0,0,0,0c0,1.3,0.9,2.3,2.2,2.4c1.3,0,2.2-1.1,2.2-2.3
	c0,0,0,0,0,0C18.7,9,17.7,8,16.5,7.9z M8.6,7.9C7.4,8,6.4,9,6.4,10.3c0,0,0,0,0,0c0,1.3,0.9,2.3,2.2,2.4c1.3,0,2.2-1.1,2.2-2.3
	c0,0,0,0,0,0C10.9,9,9.9,8,8.6,7.9C8.7,7.9,8.6,7.9,8.6,7.9z"/>
</svg>
