<?xml version="1.0" encoding="UTF-8"?>
<svg xmlns="http://www.w3.org/2000/svg" xmlns:xlink="http://www.w3.org/1999/xlink" viewBox="0 0 26 26" version="1.1" width="26px" height="26px">
<g id="surface1">
<path style=" " d="M 15.5 4 C 13.300781 4 11.199219 5.199219 10 7 L 9.5 7 C 7 7 4.886719 8.699219 4.1875 11 C 1.886719 11.101563 0 13.101563 0 15.5 C 0 18 2 20 4.5 20 L 20.5 20 C 23.5 20 26 17.5 26 14.5 C 26 12 24.304688 9.789063 21.90625 9.1875 C 21.304688 6.1875 18.601563 4 15.5 4 Z M 15.5 6 C 17.800781 6 19.800781 7.792969 20 10.09375 L 20 11 L 20.8125 11.09375 C 22.613281 11.292969 23.90625 12.792969 23.90625 14.59375 C 24.007813 16.394531 22.398438 18 20.5 18 L 4.5 18 C 3.101563 18 2 16.898438 2 15.5 C 2 14.101563 3.101563 13 4.5 13 L 4.90625 13 L 5.90625 13.1875 L 6 12.1875 C 6.199219 10.386719 7.699219 9 9.5 9 C 9.699219 9 10.011719 8.992188 10.3125 9.09375 L 11.09375 9.3125 L 11.40625 8.59375 C 12.207031 6.992188 13.800781 6 15.5 6 Z M 13 10 L 13 13 L 10.5 13 L 14 16.5 L 17.5 13 L 15 13 L 15 10 Z "/>
</g>
</svg>
