<?xml version="1.0" encoding="UTF-8" standalone="no"?>
<!DOCTYPE svg PUBLIC "-//W3C//DTD SVG 1.1//EN" "http://www.w3.org/Graphics/SVG/1.1/DTD/svg11.dtd">
<svg width="100%" height="100%" viewBox="0 0 1000 1000" version="1.1" xmlns="http://www.w3.org/2000/svg" xmlns:xlink="http://www.w3.org/1999/xlink" xml:space="preserve" xmlns:serif="http://www.serif.com/" style="fill-rule:evenodd;clip-rule:evenodd;stroke-linejoin:round;stroke-miterlimit:2;">
    <rect x="0" y="0" width="1000" height="1000" style="fill:url(#_Linear1);"/>
    <path d="M617.94,676C617.94,676 602.7,657.79 589.94,642.12C645.42,626.45 666.59,592.12 666.59,592.12C651.351,602.262 635.014,610.649 617.89,617.12C598.121,625.332 577.54,631.436 556.49,635.33C520.218,642.005 483.018,641.859 446.8,634.9C425.491,630.938 404.635,624.837 384.55,616.69C373.925,612.605 363.594,607.794 353.63,602.29C352.36,601.45 351.09,601.02 349.82,600.18C348.98,599.75 348.55,599.33 348.13,599.33C340.51,595.09 336.27,592.13 336.27,592.13C336.27,592.13 356.6,625.59 410.38,641.68C397.68,657.77 382.01,676.4 382.01,676.4C288.42,673.4 252.84,612.46 252.84,612.46C252.84,477.37 313.84,367.68 313.84,367.68C374.84,322.37 432.41,323.68 432.41,323.68L436.65,328.76C360.42,350.36 325.65,383.81 325.65,383.81C325.65,383.81 334.97,378.73 350.65,371.96C396,352 432,346.91 446.85,345.22C449.22,344.725 451.63,344.441 454.05,344.37C482.43,340.669 511.152,340.384 539.6,343.52C584.267,348.671 627.538,362.327 667.07,383.75C706.602,405.173 633.61,352 561.62,330.39L567.55,323.62C567.55,323.62 625.55,322.35 686.12,367.62C686.12,367.62 747.12,477.31 747.12,612.4C747.12,611.97 711.54,672.96 617.95,675.92L617.94,676ZM577.59,479.89C553.45,479.89 534.4,500.64 534.4,526.47C534.4,552.3 553.88,573.05 577.59,573.05C601.73,573.05 620.79,552.3 620.79,526.47C620.79,500.64 601.31,479.89 577.59,479.89ZM423.02,479.89C398.88,479.89 379.82,500.64 379.82,526.47C379.82,552.3 399.3,573.05 423.02,573.05C447.16,573.05 466.22,552.3 466.22,526.47C466.64,500.64 447.16,479.89 423,479.89L423.02,479.89Z" style="fill:white;fill-rule:nonzero;"/>
    <defs>
        <linearGradient id="_Linear1" x1="0" y1="0" x2="1" y2="0" gradientUnits="userSpaceOnUse" gradientTransform="matrix(-1183.02,683.02,-683.02,-1183.02,1091.51,158.49)"><stop offset="0" style="stop-color:rgb(0,255,237);stop-opacity:1"/><stop offset="1" style="stop-color:rgb(0,119,233);stop-opacity:1"/></linearGradient>
    </defs>
</svg>
