<?xml version="1.0" encoding="utf-8"?>
<!-- Svg Vector Icons : http://www.onlinewebfonts.com/icon -->
<!DOCTYPE svg PUBLIC "-//W3C//DTD SVG 1.1//EN" "http://www.w3.org/Graphics/SVG/1.1/DTD/svg11.dtd">
<svg version="1.1" xmlns="http://www.w3.org/2000/svg" xmlns:xlink="http://www.w3.org/1999/xlink" x="0px" y="0px" viewBox="0 0 1000 1000" enable-background="new 0 0 1000 1000" xml:space="preserve">
<metadata> Svg Vector Icons : http://www.onlinewebfonts.com/icon </metadata>
<g><path d="M184,314.1h360.4v32.8H184V314.1L184,314.1z"/><path d="M184,445.3h210.2v32.8H184V445.3z"/><path d="M184,576.5h150.2v32.8H184V576.5z"/><path d="M184,707.7h90.1v32.8H184V707.7z"/><path d="M419.2,706.8v175.9h161.1L419.2,706.8z"/><path d="M443.9,677.4l163.6,178.7l298.2-325.6L742.1,351.8L443.9,677.4z"/><path d="M799.6,829.1c0,58.3-46.3,105.5-103.4,105.5H172.5c-57.1,0-103.4-47.3-103.4-105.5V232.6c0-58.3,46.3-105.5,103.4-105.5H184v36.5c0,19.3,15.1,34.9,33.7,34.9c18.6,0,33.7-15.6,33.7-34.9V127h52.8v36.5c0,19.3,15.1,34.9,33.7,34.9s33.7-15.6,33.7-34.9V127h52.8v36.5c0,19.3,15.1,34.9,33.7,34.9c18.6,0,33.7-15.6,33.7-34.9V127h52.8v36.5c0,19.3,15.1,34.9,33.7,34.9s33.7-15.6,33.7-34.9V127h84.5c57.1,0,103.4,47.3,103.4,105.5v14.2h59.1v-55c0-66.3-52.7-120-117.6-120H611.7V44.9c0-19.3-15.1-34.9-33.7-34.9c-18.6,0-33.7,15.6-33.7,34.9v26.8h-52.8V44.9c0-19.3-15.1-34.9-33.7-34.9s-33.7,15.6-33.7,34.9v26.8h-52.8V44.9c0-19.3-15.1-34.9-33.7-34.9c-18.6,0-33.7,15.6-33.7,34.9v26.8h-52.8V44.9c0-19.3-15.1-34.9-33.7-34.9S184,25.6,184,44.9v26.8h-56.4c-65,0-117.6,53.7-117.6,120V870c0,66.3,52.7,120,117.6,120h613.4c65,0,117.6-53.7,117.6-120V745.6h-59.1V829.1z"/><path d="M969.6,364l-79-78.2c-25.9-25.7-66.6-25.1-90.9,1.2s-39.3,46.8-39.3,46.8l165.5,174.4c0,0,22.5-23.6,46.8-50C996.9,431.9,995.6,389.7,969.6,364z"/></g>
</svg>