<?xml version="1.0" encoding="iso-8859-1"?>
<!-- Generator: Adobe Illustrator 19.0.0, SVG Export Plug-In . SVG Version: 6.00 Build 0)  -->
<svg version="1.1" id="Layer_1" xmlns="http://www.w3.org/2000/svg" xmlns:xlink="http://www.w3.org/1999/xlink" x="0px" y="0px"
	 viewBox="0 0 512.001 512.001" style="enable-background:new 0 0 512.001 512.001;" xml:space="preserve">
<path style="fill:#FF615C;" d="M495.521,96.048c21.972-21.972,21.972-57.596,0-79.569c-21.972-21.972-57.597-21.972-79.569,0
	l-23.87,23.87l23.87,55.699l55.698,23.87L495.521,96.048z"/>
<polygon style="fill:#FFA72E;" points="431.866,111.962 360.254,72.178 39.785,392.647 79.57,464.26 "/>
<polygon style="fill:#FF8B00;" points="415.953,96.048 63.656,448.346 119.354,472.216 439.823,151.747 "/>
<polygon style="fill:#FFD47D;" points="39.785,392.647 15.914,464.26 15.914,496.087 47.741,496.087 119.354,472.216 "/>
<rect x="393.46" y="39.781" transform="matrix(0.7071 -0.7071 0.7071 0.7071 53.9199 322.263)" style="fill:#EDEDEF;" width="45.011" height="112.526"/>
<polygon style="fill:#080342;" points="0.001,512.001 47.741,496.087 15.914,464.26 "/>
<g>
</g>
<g>
</g>
<g>
</g>
<g>
</g>
<g>
</g>
<g>
</g>
<g>
</g>
<g>
</g>
<g>
</g>
<g>
</g>
<g>
</g>
<g>
</g>
<g>
</g>
<g>
</g>
<g>
</g>
</svg>
