<?xml version="1.0" encoding="utf-8"?>
<!-- Generator: Adobe Illustrator 22.1.0, SVG Export Plug-In . SVG Version: 6.00 Build 0)  -->
<svg version="1.1" id="Layer_1" xmlns="http://www.w3.org/2000/svg" xmlns:xlink="http://www.w3.org/1999/xlink" x="0px" y="0px"
	 viewBox="0 0 1024 1024" style="enable-background:new 0 0 1024 1024;" xml:space="preserve">
<style type="text/css">
	.st0{fill:#E0B119;}
	.st1{fill:#FFFFFF;}
</style>
<path class="st0" d="M1005.9,863.7l-438.3-767C556.2,76.8,535,64.5,512,64.5s-44.2,12.3-55.6,32.2l-438.3,767
	c-11.3,19.8-11.2,44.1,0.2,63.9c11.5,19.7,32.5,31.9,55.4,31.9h876.6c22.8,0,43.9-12.1,55.4-31.9S1017.2,883.6,1005.9,863.7z
	 M576,831.5H448v-128h128V831.5z M576,639.5H448v-256h128V639.5z"/>
<rect x="448" y="383.5" class="st1" width="128" height="256"/>
<rect x="448" y="703" class="st1" width="128" height="128"/>
</svg>
