<?xml version="1.0" encoding="UTF-8" standalone="no"?><!DOCTYPE svg PUBLIC "-//W3C//DTD SVG 1.1//EN" "http://www.w3.org/Graphics/SVG/1.1/DTD/svg11.dtd"><svg width="100%" height="100%" viewBox="0 0 117 117" version="1.1" xmlns="http://www.w3.org/2000/svg" xmlns:xlink="http://www.w3.org/1999/xlink" xml:space="preserve" xmlns:serif="http://www.serif.com/" style="fill-rule:evenodd;clip-rule:evenodd;stroke-linejoin:round;stroke-miterlimit:2;"><circle cx="58.333" cy="58.333" r="58.333" style="fill:#77b3d4;"/><g><path d="M94.792,87.5c-0,4.027 -3.265,7.292 -7.292,7.292l-58.333,-0c-4.027,-0 -7.292,-3.265 -7.292,-7.292l0,-54.688c0,-4.026 3.265,-7.291 7.292,-7.291l58.333,-0c4.027,-0 7.292,3.265 7.292,7.291l-0,54.688Z" style="fill:#231f20;fill-opacity:0.2;fill-rule:nonzero;"/><g><g><path d="M21.875,39.193l0,44.661c0,4.027 3.265,7.292 7.292,7.292l58.333,-0c4.027,-0 7.292,-3.265 7.292,-7.292l-0,-44.661l-72.917,-0Z" style="fill:#fff;fill-rule:nonzero;"/><g><rect x="29.167" y="51.042" width="21.875" height="32.812" style="fill:#4f5d73;"/><g><rect x="58.333" y="51.042" width="29.167" height="3.646" style="fill:#e0e0d1;"/><rect x="58.333" y="58.333" width="29.167" height="3.646" style="fill:#e0e0d1;"/><rect x="58.333" y="65.625" width="29.167" height="3.646" style="fill:#e0e0d1;"/><rect x="58.333" y="72.917" width="29.167" height="3.646" style="fill:#e0e0d1;"/><rect x="58.333" y="80.208" width="29.167" height="3.646" style="fill:#e0e0d1;"/></g></g></g><g><g><path d="M94.792,32.812c-0,-4.026 -3.265,-7.291 -7.292,-7.291l-58.333,-0c-4.027,-0 -7.292,3.265 -7.292,7.291l0,10.938l72.917,-0l-0,-10.938Z" style="fill:#231f20;fill-opacity:0.2;fill-rule:nonzero;"/><path d="M94.792,29.167c-0,-4.027 -3.265,-7.292 -7.292,-7.292l-58.333,-0c-4.027,-0 -7.292,3.265 -7.292,7.292l0,10.937l72.917,0l-0,-10.937Z" style="fill:#e0e0d1;fill-rule:nonzero;"/></g><g><circle cx="41.927" cy="30.99" r="3.646" style="fill:#e0995e;"/><circle cx="52.865" cy="30.99" r="3.646" style="fill:#76c2af;"/><circle cx="30.99" cy="30.99" r="3.646" style="fill:#c75c5c;"/></g></g></g></g></svg>