<?xml version="1.0" encoding="UTF-8" standalone="no"?><!DOCTYPE svg PUBLIC "-//W3C//DTD SVG 1.1//EN" "http://www.w3.org/Graphics/SVG/1.1/DTD/svg11.dtd"><svg width="100%" height="100%" viewBox="0 0 8892 8892" version="1.1" xmlns="http://www.w3.org/2000/svg" xmlns:xlink="http://www.w3.org/1999/xlink" xml:space="preserve" xmlns:serif="http://www.serif.com/" style="fill-rule:evenodd;clip-rule:evenodd;stroke-linejoin:round;stroke-miterlimit:2;"><circle cx="4445.83" cy="4445.83" r="4445.83" style="fill:#2196f3;"/><path d="M6494,1921.89c261.223,0 472.978,211.757 472.978,472.978l-0,2837.86c-0,261.221 -211.755,472.977 -472.978,472.977l-2837.86,0c-261.22,0 -472.977,-211.756 -472.977,-472.977l-0,-2837.86c-0,-261.221 211.757,-472.978 472.977,-472.978l2837.86,0m-2837.86,4099.13c-434.666,-0 -788.295,-353.629 -788.295,-788.295l0,-2049.57l-472.977,-0c-261.221,-0 -472.977,211.756 -472.977,472.977l-0,2837.86c-0,261.223 211.756,472.978 472.977,472.978l2837.86,-0c261.221,-0 472.978,-211.755 472.978,-472.978l-0,-472.977l-2049.57,-0Z" style="fill:#fff;fill-rule:nonzero;"/></svg>