<?xml version="1.0" encoding="UTF-8" standalone="no"?><!DOCTYPE svg PUBLIC "-//W3C//DTD SVG 1.1//EN" "http://www.w3.org/Graphics/SVG/1.1/DTD/svg11.dtd"><svg width="100%" height="100%" viewBox="0 0 234 167" version="1.1" xmlns="http://www.w3.org/2000/svg" xmlns:xlink="http://www.w3.org/1999/xlink" xml:space="preserve" xmlns:serif="http://www.serif.com/" style="fill-rule:evenodd;clip-rule:evenodd;stroke-linejoin:round;stroke-miterlimit:2;"><path d="M172.363,166.344c-0,0 -7.174,-8.59 -13.221,-16.006c14.441,-3.392 27.252,-11.74 36.187,-23.591c-7.193,4.771 -14.898,8.721 -22.966,11.786c-9.336,3.876 -19.053,6.755 -28.994,8.59c-17.125,3.14 -34.687,3.084 -51.793,-0.186c-10.062,-1.882 -19.92,-4.761 -29.414,-8.59c-5.012,-1.938 -9.885,-4.211 -14.59,-6.801c-0.615,-0.382 -1.183,-0.615 -1.798,-0.988c-0.382,-0.186 -0.615,-0.382 -0.801,-0.382c-3.587,-1.985 -5.59,-3.401 -5.59,-3.401c8.59,11.609 20.963,19.873 34.985,23.367c-6,7.603 -13.407,16.379 -13.407,16.379c-44.191,-1.36 -60.961,-30.159 -60.961,-30.159c0.671,-40.221 10.519,-79.752 28.799,-115.585c16.081,-12.504 35.637,-19.752 55.985,-20.74l1.984,2.404c-19.192,4.612 -37.109,13.5 -52.398,25.985c-15.289,12.485 4.388,-2.404 11.805,-5.59c14.404,-6.457 29.702,-10.715 45.373,-12.606c1.118,-0.224 2.255,-0.345 3.401,-0.382c34.64,-4.584 69.867,1.938 100.566,18.634c-14.58,-11.889 -31.556,-20.507 -49.761,-25.268l2.795,-3.214c20.357,0.978 39.923,8.236 55.995,20.777c18.279,35.833 28.127,75.364 28.798,115.585c-14.162,19.38 -36.988,30.597 -60.979,29.982Zm-19.053,-92.545c-11.32,0.392 -20.414,9.811 -20.414,21.14c0,0.289 0.01,0.578 0.019,0.867c-0.41,11.618 8.777,21.531 20.395,22.006c11.32,-0.391 20.413,-9.81 20.413,-21.14c0,-0.288 -0.009,-0.577 -0.018,-0.866c0.41,-11.618 -8.777,-21.532 -20.395,-22.007Zm-72.998,0c-11.32,0.392 -20.414,9.811 -20.414,21.14c0,0.289 0.01,0.578 0.019,0.867c-0.41,11.618 8.777,21.522 20.395,21.997c11.32,-0.391 20.413,-9.811 20.413,-21.14c0,-0.289 -0.009,-0.578 -0.018,-0.866c0.018,-0.345 0.028,-0.69 0.028,-1.035c-0,-11.292 -9.131,-20.665 -20.423,-20.963Z" style="fill:#fff;fill-rule:nonzero;"/></svg>