<?xml version="1.0" encoding="UTF-8" standalone="no"?><!DOCTYPE svg PUBLIC "-//W3C//DTD SVG 1.1//EN" "http://www.w3.org/Graphics/SVG/1.1/DTD/svg11.dtd"><svg width="100%" height="100%" viewBox="0 0 200 200" version="1.1" xmlns="http://www.w3.org/2000/svg" xmlns:xlink="http://www.w3.org/1999/xlink" xml:space="preserve" xmlns:serif="http://www.serif.com/" style="fill-rule:evenodd;clip-rule:evenodd;stroke-linejoin:round;stroke-miterlimit:2;"><path d="M100,0c-55.5,0 -100,44.5 -100,100c0,55.5 44.5,100 100,100c55.5,0 100,-45 100,-100c0,-55 -45,-100 -100,-100Z" style="fill:#48a0dc;fill-rule:nonzero;"/><path d="M130.5,92.5l-9,9c-7,7.5 -11.5,13.5 -11.5,28.5l-20,0l0,-5c0,-11 4.5,-21 11.5,-28.5l12.5,-12.5c3.5,-3.5 6,-8.5 6,-14c0,-11 -9,-20 -20,-20c-11,0 -20,9 -20,20l-20,0c0,-22 18,-40 40,-40c22,0 40,18 40,40c0,9 -3.5,17 -9.5,22.5Z" style="fill:#fff;fill-rule:nonzero;"/><rect x="90" y="150" width="20" height="20" style="fill:#fff;"/></svg>