<?xml version="1.0" encoding="UTF-8" standalone="no"?><!DOCTYPE svg PUBLIC "-//W3C//DTD SVG 1.1//EN" "http://www.w3.org/Graphics/SVG/1.1/DTD/svg11.dtd"><svg width="100%" height="100%" viewBox="0 0 267 267" version="1.1" xmlns="http://www.w3.org/2000/svg" xmlns:xlink="http://www.w3.org/1999/xlink" xml:space="preserve" xmlns:serif="http://www.serif.com/" style="fill-rule:evenodd;clip-rule:evenodd;stroke-linejoin:round;stroke-miterlimit:2;"><path d="M0,133.333c0,-73.563 59.77,-133.333 133.333,-133.333c73.564,0 133.334,59.77 133.334,133.333c-0,73.564 -59.77,133.334 -133.334,133.334c-73.563,-0 -133.333,-59.77 -133.333,-133.334Z" style="fill:#25b7d3;fill-rule:nonzero;"/><path d="M138.686,88.89c-0.494,-2.118 -0.755,-4.324 -0.755,-6.591c0,-15.987 12.979,-28.966 28.966,-28.966c15.986,0 28.965,12.979 28.965,28.966c0,15.986 -12.979,28.965 -28.965,28.965c-8.09,0 -15.409,-3.323 -20.666,-8.677l-39.779,23.161c0.739,2.554 1.134,5.254 1.134,8.045c0,2.238 -0.254,4.417 -0.736,6.512l39.917,23.243c5.214,-5.042 12.312,-8.146 20.13,-8.146c15.986,0 28.965,12.979 28.965,28.966c0,15.986 -12.979,28.965 -28.965,28.965c-15.987,0 -28.966,-12.979 -28.966,-28.965c0,-2.532 0.326,-4.989 0.937,-7.33l-39.525,-23.015c-5.262,5.389 -12.604,8.736 -20.722,8.736c-15.987,-0 -28.966,-12.979 -28.966,-28.966c0,-15.986 12.979,-28.965 28.966,-28.965c7.549,-0 14.427,2.894 19.585,7.632l40.48,-23.57Z" style="fill:#fff;"/></svg>