<?xml version="1.0" encoding="UTF-8" standalone="no"?><!DOCTYPE svg PUBLIC "-//W3C//DTD SVG 1.1//EN" "http://www.w3.org/Graphics/SVG/1.1/DTD/svg11.dtd"><svg width="100%" height="100%" viewBox="0 0 234 250" version="1.1" xmlns="http://www.w3.org/2000/svg" xmlns:xlink="http://www.w3.org/1999/xlink" xml:space="preserve" xmlns:serif="http://www.serif.com/" style="fill-rule:evenodd;clip-rule:evenodd;stroke-linejoin:round;stroke-miterlimit:2;"><path d="M233.333,32.022c0,-17.672 -14.35,-32.022 -32.022,-32.022l-169.289,0c-17.672,0 -32.022,14.35 -32.022,32.022c0,17.672 14.35,32.022 32.022,32.022l169.289,-0c17.672,-0 32.022,-14.35 32.022,-32.022Z" style="fill:#fff;"/><path d="M233.333,123.539c0,-17.672 -14.35,-32.022 -32.022,-32.022l-169.289,0.001c-17.672,-0.001 -32.022,14.349 -32.022,32.021c0,17.673 14.35,32.022 32.022,32.022l169.289,0c17.672,0 32.022,-14.349 32.022,-32.022Z" style="fill:#fff;"/><path d="M233.333,215.057c0,-17.672 -14.35,-32.022 -32.022,-32.022l-169.289,-0c-17.672,-0 -32.022,14.35 -32.022,32.022c0,17.672 14.35,32.022 32.022,32.022l169.289,-0c17.672,-0 32.022,-14.35 32.022,-32.022Z" style="fill:#fff;"/></svg>