<?xml version="1.0" encoding="UTF-8" standalone="no"?><!DOCTYPE svg PUBLIC "-//W3C//DTD SVG 1.1//EN" "http://www.w3.org/Graphics/SVG/1.1/DTD/svg11.dtd"><svg width="100%" height="100%" viewBox="0 0 154 154" version="1.1" xmlns="http://www.w3.org/2000/svg" xmlns:xlink="http://www.w3.org/1999/xlink" xml:space="preserve" xmlns:serif="http://www.serif.com/" style="fill-rule:evenodd;clip-rule:evenodd;stroke-linejoin:round;stroke-miterlimit:2;"><path d="M10.938,79.297c-0.001,-1.5 1.234,-2.734 2.734,-2.734c1.5,-0.001 2.734,1.234 2.734,2.734c0,1.5 -1.234,2.734 -2.734,2.734c-1.5,-0.001 -2.733,-1.235 -2.734,-2.734Zm-10.938,-13.672l153.125,0l0,27.344l-153.125,-0l0,-27.344Zm76.563,13.672c-0.001,1.5 1.234,2.734 2.734,2.734l49.219,0c1.5,0 2.734,-1.234 2.734,-2.734c0,-1.5 -1.234,-2.734 -2.734,-2.734l-49.219,-0.001c-1.5,0.001 -2.734,1.235 -2.734,2.735Zm-43.751,-0c0,1.5 1.235,2.734 2.735,2.734l32.812,0c1.501,0 2.735,-1.234 2.735,-2.734c-0,-1.5 -1.234,-2.734 -2.735,-2.734l-32.812,-0.001c-1.5,0.001 -2.735,1.235 -2.735,2.735Zm-27.343,-0c-0,4.5 3.703,8.203 8.203,8.203c4.5,0 8.203,-3.703 8.203,-8.203c-0,-4.5 -3.703,-8.203 -8.203,-8.203c-4.498,0.005 -8.198,3.705 -8.203,8.203Zm16.406,19.141l120.312,-0.001l0,46.485c-0.005,4.498 -3.705,8.198 -8.203,8.203l-103.906,0c-4.498,-0.005 -8.198,-3.705 -8.203,-8.203l-0,-46.484Zm87.5,30.078c0,-1.501 -1.234,-2.735 -2.734,-2.735l-27.344,0c-1.5,0 -2.734,1.234 -2.734,2.735c-0.001,1.5 1.234,2.734 2.734,2.734l27.344,0c1.5,0 2.734,-1.234 2.734,-2.734Zm21.875,-0c0,-1.501 -1.234,-2.735 -2.734,-2.735l-10.938,0c-1.5,0 -2.734,1.234 -2.734,2.735c-0,1.5 1.234,2.734 2.734,2.734l10.938,0c1.5,0 2.734,-1.234 2.734,-2.734Zm-27.344,-16.407c0,1.501 1.234,2.735 2.735,2.735l21.875,-0c1.5,-0 2.734,-1.234 2.734,-2.735c-0,-1.5 -1.234,-2.734 -2.734,-2.734l-21.875,0c-1.501,0 -2.735,1.234 -2.735,2.734Zm-38.281,0c-0,1.501 1.234,2.735 2.734,2.735l27.344,-0c1.5,-0 2.734,-1.234 2.734,-2.735c0,-1.5 -1.234,-2.734 -2.734,-2.734l-27.344,0c-1.5,0 -2.734,1.234 -2.734,2.734Zm-32.813,0c0,1.501 1.235,2.735 2.735,2.735l21.875,-0c1.5,-0 2.734,-1.234 2.734,-2.735c0,-1.5 -1.234,-2.734 -2.734,-2.734l-21.875,0c-1.5,0 -2.735,1.234 -2.735,2.734Zm0,16.407c0,1.5 1.235,2.734 2.735,2.734l32.812,0c1.501,0 2.735,-1.234 2.735,-2.734c-0,-1.501 -1.234,-2.735 -2.735,-2.735l-32.812,0c-1.5,0 -2.735,1.234 -2.735,2.735Zm109.375,-68.36l-120.312,0l-0,-51.953c0.005,-4.498 3.705,-8.198 8.203,-8.203l79.297,0l-0,19.141c0.009,7.497 6.175,13.663 13.672,13.672l19.14,-0l0,27.343Zm-109.375,-30.078c0,1.5 1.235,2.735 2.735,2.735l32.812,-0c1.501,-0 2.735,-1.235 2.735,-2.735c-0,-1.5 -1.234,-2.734 -2.735,-2.734l-32.812,-0c-1.5,-0 -2.735,1.234 -2.735,2.734Zm21.875,16.406c0,-1.5 -1.234,-2.734 -2.734,-2.734l-16.406,0c-1.5,0 -2.735,1.234 -2.735,2.734c0,1.501 1.235,2.735 2.735,2.735l16.406,-0c1.5,-0 2.734,-1.234 2.734,-2.735Zm76.563,0c-0,-1.5 -1.234,-2.734 -2.734,-2.734l-65.625,0c-1.501,0 -2.735,1.234 -2.735,2.734c0,1.501 1.234,2.735 2.735,2.735l65.625,-0c1.5,-0 2.734,-1.234 2.734,-2.735Zm-8.203,-19.14l15.274,-0l-23.477,-23.477l-0,15.274c0.005,4.498 3.705,8.198 8.203,8.203Z" style="fill:#fff;fill-rule:nonzero;"/></svg>