<svg xmlns="http://www.w3.org/2000/svg" width="27.331" height="26.657" viewBox="0 0 27.331 26.657"><path d="M13.664-31.775A13.666,13.666,0,0,0,0-18.109,13.669,13.669,0,0,0,9.346-5.141c.684.125.933-.3.933-.659,0-.324-.012-1.184-.018-2.324-3.8.826-4.6-1.832-4.6-1.832a3.619,3.619,0,0,0-1.518-2c-1.241-.848.094-.831.094-.831a2.872,2.872,0,0,1,2.093,1.409A2.911,2.911,0,0,0,10.3-10.242a2.917,2.917,0,0,1,.867-1.827c-3.034-.345-6.225-1.518-6.225-6.754A5.283,5.283,0,0,1,6.353-22.49a4.912,4.912,0,0,1,.133-3.617s1.148-.367,3.758,1.4a13.089,13.089,0,0,1,3.421-.46,13.108,13.108,0,0,1,3.421.46c2.609-1.768,3.754-1.4,3.754-1.4a4.9,4.9,0,0,1,.136,3.617,5.274,5.274,0,0,1,1.405,3.667c0,5.25-3.2,6.405-6.24,6.743a3.262,3.262,0,0,1,.928,2.531c0,1.826-.017,3.3-.017,3.748,0,.366.246.791.94.658a13.671,13.671,0,0,0,9.338-12.966A13.667,13.667,0,0,0,13.664-31.775" transform="translate(0 31.775)" fill="#fff" fill-rule="evenodd"/></svg>