<?xml version="1.0" encoding="UTF-8" standalone="no"?><!DOCTYPE svg PUBLIC "-//W3C//DTD SVG 1.1//EN" "http://www.w3.org/Graphics/SVG/1.1/DTD/svg11.dtd"><svg width="100%" height="100%" viewBox="0 0 834 834" version="1.1" xmlns="http://www.w3.org/2000/svg" xmlns:xlink="http://www.w3.org/1999/xlink" xml:space="preserve" xmlns:serif="http://www.serif.com/" style="fill-rule:evenodd;clip-rule:evenodd;stroke-linejoin:round;stroke-miterlimit:2;"><path d="M416.667,0c-231.25,0 -416.667,185.417 -416.667,416.667c0,231.25 185.417,416.666 416.667,416.666c231.25,0 416.666,-187.5 416.666,-416.666c0,-229.167 -187.5,-416.667 -416.666,-416.667Z" style="fill:#2196f3;fill-rule:nonzero;"/><path d="M543.75,385.417l-37.5,37.5c-29.167,31.25 -47.917,56.25 -47.917,118.75l-83.333,-0l0,-20.834c0,-45.833 18.75,-87.5 47.917,-118.75l52.083,-52.083c14.583,-14.583 25,-35.417 25,-58.333c0,-45.834 -37.5,-83.334 -83.333,-83.334c-45.834,0 -83.334,37.5 -83.334,83.334l-83.333,-0c0,-91.667 75,-166.667 166.667,-166.667c91.666,-0 166.666,75 166.666,166.667c0,37.5 -14.583,70.833 -39.583,93.75Z" style="fill:#fff;fill-rule:nonzero;"/><rect x="375" y="625" width="83.333" height="83.333" style="fill:#fff;"/></svg>