<?xml version="1.0" encoding="UTF-8" standalone="no"?><!DOCTYPE svg PUBLIC "-//W3C//DTD SVG 1.1//EN" "http://www.w3.org/Graphics/SVG/1.1/DTD/svg11.dtd"><svg width="100%" height="100%" viewBox="0 0 4167 4167" version="1.1" xmlns="http://www.w3.org/2000/svg" xmlns:xlink="http://www.w3.org/1999/xlink" xml:space="preserve" xmlns:serif="http://www.serif.com/" style="fill-rule:evenodd;clip-rule:evenodd;stroke-linejoin:round;stroke-miterlimit:2;"><rect x="766.667" y="1308.75" width="1501.67" height="136.667" style="fill:#fff;"/><rect x="766.667" y="1855.42" width="875.833" height="136.667" style="fill:#fff;"/><rect x="766.667" y="2402.08" width="625.833" height="136.667" style="fill:#fff;"/><rect x="766.667" y="2948.75" width="375.417" height="136.667" style="fill:#fff;"/><path d="M1746.67,2945l-0,732.917l671.25,-0l-671.25,-732.917Z" style="fill:#fff;fill-rule:nonzero;"/><path d="M1849.58,2822.5l681.667,744.583l1242.5,-1356.67l-681.667,-744.584l-1242.5,1356.67Z" style="fill:#fff;fill-rule:nonzero;"/><path d="M3331.67,3454.58c-0,242.917 -192.917,439.584 -430.834,439.584l-2182.08,-0c-237.917,-0 -430.833,-197.084 -430.833,-439.584l-0,-2485.42c-0,-242.917 192.916,-439.584 430.833,-439.584l47.917,0l-0,152.084c-0,80.416 62.916,145.416 140.416,145.416c77.5,0 140.417,-65 140.417,-145.416l0,-152.5l220,-0l0,152.083c0,80.417 62.917,145.417 140.417,145.417c77.5,-0 140.416,-65 140.416,-145.417l0,-152.083l220,-0l0,152.083c0,80.417 62.917,145.417 140.417,145.417c77.5,-0 140.417,-65 140.417,-145.417l-0,-152.083l220,-0l-0,152.083c-0,80.417 62.916,145.417 140.416,145.417c77.5,-0 140.417,-65 140.417,-145.417l0,-152.083l352.083,-0c237.917,-0 430.834,197.083 430.834,439.583l-0,59.167l246.25,-0l-0,-229.167c-0,-276.25 -219.584,-500 -490,-500l-540.417,0l0,-111.667c0,-80.416 -62.917,-145.416 -140.417,-145.416c-77.5,-0 -140.416,65 -140.416,145.416l-0,111.667l-220,0l-0,-111.667c-0,-80.416 -62.917,-145.416 -140.417,-145.416c-77.5,-0 -140.417,65 -140.417,145.416l0,111.667l-220,0l0,-111.667c0,-80.416 -62.916,-145.416 -140.416,-145.416c-77.5,-0 -140.417,65 -140.417,145.416l-0,111.667l-220,0l-0,-111.667c-0,-80.416 -62.917,-145.416 -140.417,-145.416c-77.5,-0 -139.166,65 -139.166,145.416l-0,111.667l-235,0c-270.834,0 -490,223.75 -490,500l-0,2826.25c-0,276.25 219.583,500 490,500l2555.83,0c270.833,0 490,-223.75 490,-500l0,-518.333l-246.25,-0l0,347.916l0.417,0Z" style="fill:#fff;fill-rule:nonzero;"/><path d="M4040,1516.67l-329.167,-325.834c-107.916,-107.083 -277.5,-104.583 -378.75,5c-101.25,109.584 -163.75,195 -163.75,195l689.584,726.667c-0,0 93.75,-98.333 195,-208.333c100.833,-109.584 95.416,-285.417 -12.917,-392.5Z" style="fill:#fff;fill-rule:nonzero;"/></svg>