<?xml version="1.0" encoding="UTF-8" standalone="no"?><!DOCTYPE svg PUBLIC "-//W3C//DTD SVG 1.1//EN" "http://www.w3.org/Graphics/SVG/1.1/DTD/svg11.dtd"><svg width="100%" height="100%" viewBox="0 0 2134 2134" version="1.1" xmlns="http://www.w3.org/2000/svg" xmlns:xlink="http://www.w3.org/1999/xlink" xml:space="preserve" xmlns:serif="http://www.serif.com/" style="fill-rule:evenodd;clip-rule:evenodd;stroke-linejoin:round;stroke-miterlimit:2;"><path d="M2064.67,400.2c91.55,-91.55 91.55,-239.983 -0,-331.537c-91.55,-91.55 -239.988,-91.55 -331.538,-0l-99.458,99.458l331.533,331.537l99.463,-99.458Z" style="fill:#ff615c;fill-rule:nonzero;"/><path d="M1666.88,466.508l-165.817,-165.766l-1335.29,1335.29l165.771,165.777l1335.33,-1335.3Z" style="fill:#ffa72e;fill-rule:nonzero;"/><path d="M1666.88,466.508l-1335.34,1335.3l165.772,165.761l1335.29,-1335.29l-165.721,-165.771Z" style="fill:#ff8b00;fill-rule:nonzero;"/><path d="M165.771,1636.03l-99.463,298.388l132.613,132.612l298.387,-99.462l-331.537,-331.538Z" style="fill:#ffd47d;fill-rule:nonzero;"/><path d="M1633.72,168.122l-132.613,132.614l331.529,331.529l132.614,-132.613l-331.53,-331.53Z" style="fill:#ededef;"/><path d="M0.004,2133.34l198.917,-66.309l-132.613,-132.612l-66.304,198.921Z" style="fill:#080342;fill-rule:nonzero;"/></svg>