<?xml version="1.0" encoding="UTF-8" standalone="no"?><!DOCTYPE svg PUBLIC "-//W3C//DTD SVG 1.1//EN" "http://www.w3.org/Graphics/SVG/1.1/DTD/svg11.dtd"><svg width="100%" height="100%" viewBox="0 0 234 242" version="1.1" xmlns="http://www.w3.org/2000/svg" xmlns:xlink="http://www.w3.org/1999/xlink" xml:space="preserve" xmlns:serif="http://www.serif.com/" style="fill-rule:evenodd;clip-rule:evenodd;stroke-linejoin:round;stroke-miterlimit:2;"><path d="M205.623,131.576c0.49,-3.959 0.756,-7.942 0.804,-11.925c-0.064,-3.982 -0.33,-7.965 -0.804,-11.924l25.489,-19.736c2.438,-1.835 2.985,-5.319 1.231,-7.813l-23.848,-41.115c-1.448,-2.599 -4.683,-3.677 -7.402,-2.47l-30.012,11.924c-6.155,-4.835 -12.922,-8.842 -20.115,-11.924l-4.554,-31.661c-0.289,-2.904 -2.848,-5.093 -5.761,-4.932l-48.106,0c-2.865,-0.024 -5.335,2.092 -5.753,4.932l-4.522,32.079c-7.274,2.921 -14.056,6.944 -20.115,11.925l-30.052,-12.343c-2.727,-1.143 -5.905,-0.08 -7.402,2.47l-23.832,41.525c-1.545,2.615 -0.845,6.019 1.609,7.813l25.514,19.737c-0.491,3.958 -0.756,7.941 -0.805,11.924c0.065,3.983 0.33,7.965 0.805,11.924l-25.514,19.737c-2.349,1.858 -3.033,5.173 -1.609,7.812l23.848,41.115c1.497,2.551 4.675,3.613 7.402,2.47l30.02,-11.924c6.155,4.836 12.922,8.843 20.115,11.924l4.522,31.661c0.418,2.84 2.888,4.956 5.753,4.932l48.106,0c2.865,0.024 5.335,-2.092 5.753,-4.932l4.522,-31.661c7.274,-2.92 14.056,-6.943 20.115,-11.924l30.019,11.924c2.728,1.143 5.906,0.081 7.403,-2.47l23.848,-41.525c1.472,-2.559 0.957,-5.833 -1.231,-7.813l-25.441,-19.736Zm-88.82,30.429c-23.011,0 -41.943,-18.932 -41.943,-41.943c-0,-23.012 18.932,-41.944 41.943,-41.944c23.012,0 41.944,18.932 41.944,41.944c-0.089,22.971 -18.973,41.855 -41.944,41.943Z" style="fill:#fff;fill-rule:nonzero;"/></svg>