<?xml version="1.0" encoding="UTF-8" standalone="no"?><!DOCTYPE svg PUBLIC "-//W3C//DTD SVG 1.1//EN" "http://www.w3.org/Graphics/SVG/1.1/DTD/svg11.dtd"><svg width="100%" height="100%" viewBox="0 0 1113 1113" version="1.1" xmlns="http://www.w3.org/2000/svg" xmlns:xlink="http://www.w3.org/1999/xlink" xml:space="preserve" xmlns:serif="http://www.serif.com/" style="fill-rule:evenodd;clip-rule:evenodd;stroke-linejoin:round;stroke-miterlimit:2;"><path d="M0,555.554c0,-306.512 249.042,-555.554 555.554,-555.554c306.517,0 555.559,249.042 555.559,555.554c-0,306.517 -249.042,555.559 -555.559,555.559c-306.512,-0 -555.554,-249.042 -555.554,-555.559Z" style="fill:#2196f3;fill-rule:nonzero;"/><path d="M577.858,370.375c-2.058,-8.825 -3.145,-18.017 -3.145,-27.462c-0,-66.613 54.079,-120.692 120.691,-120.692c66.608,-0 120.688,54.079 120.688,120.692c-0,66.608 -54.079,120.687 -120.688,120.687c-33.708,0 -64.204,-13.846 -86.108,-36.154l-165.746,96.504c3.079,10.642 4.725,21.892 4.725,33.521c0,9.325 -1.058,18.404 -3.067,27.133l166.321,96.846c21.725,-21.008 51.3,-33.942 83.875,-33.942c66.608,0 120.688,54.079 120.688,120.692c-0,66.608 -54.079,120.688 -120.688,120.688c-66.612,-0 -120.692,-54.08 -120.692,-120.688c0,-10.55 1.359,-20.788 3.905,-30.542l-164.688,-95.896c-21.925,22.455 -52.517,36.4 -86.342,36.4c-66.612,0 -120.691,-54.079 -120.691,-120.691c-0,-66.609 54.079,-120.688 120.691,-120.688c31.455,0 60.113,12.059 81.605,31.8l168.666,-98.208Z" style="fill:#fff;"/></svg>