<?xml version="1.0" encoding="UTF-8" standalone="no"?>
<!DOCTYPE svg PUBLIC "-//W3C//DTD SVG 1.1//EN" "http://www.w3.org/Graphics/SVG/1.1/DTD/svg11.dtd">
<svg width="100%" height="100%" viewBox="0 0 56 60" version="1.1" xmlns="http://www.w3.org/2000/svg" xmlns:xlink="http://www.w3.org/1999/xlink" xml:space="preserve" xmlns:serif="http://www.serif.com/" style="fill-rule:evenodd;clip-rule:evenodd;stroke-linejoin:round;stroke-miterlimit:2;">
    <g transform="matrix(2.19642,0,0,2.19642,0,0)">
        <path d="M25.496,3.499C25.496,1.568 23.928,0 21.997,0L3.499,0C1.568,0 0,1.568 0,3.499C0,5.43 1.568,6.998 3.499,6.998L21.997,6.998C23.928,6.998 25.496,5.43 25.496,3.499Z" style="fill:white;"/>
        <g transform="matrix(1,0,0,1,0,10)">
            <path d="M25.496,3.499C25.496,1.568 23.928,0 21.997,0L3.499,0C1.568,0 0,1.568 0,3.499C0,5.43 1.568,6.998 3.499,6.998L21.997,6.998C23.928,6.998 25.496,5.43 25.496,3.499Z" style="fill:white;"/>
        </g>
        <g transform="matrix(1,0,0,1,0,20)">
            <path d="M25.496,3.499C25.496,1.568 23.928,0 21.997,0L3.499,0C1.568,0 0,1.568 0,3.499C0,5.43 1.568,6.998 3.499,6.998L21.997,6.998C23.928,6.998 25.496,5.43 25.496,3.499Z" style="fill:white;"/>
        </g>
    </g>
</svg>
