<?xml version="1.0" encoding="UTF-8" standalone="no"?>
<!DOCTYPE svg PUBLIC "-//W3C//DTD SVG 1.1//EN" "http://www.w3.org/Graphics/SVG/1.1/DTD/svg11.dtd">
<svg width="100%" height="100%" viewBox="0 0 56 84" version="1.1" xmlns="http://www.w3.org/2000/svg" xmlns:xlink="http://www.w3.org/1999/xlink" xml:space="preserve" xmlns:serif="http://www.serif.com/" style="fill-rule:evenodd;clip-rule:evenodd;stroke-linejoin:round;stroke-miterlimit:2;">
    <g transform="matrix(3.20073,0,0,3.20073,-89.6205,-444.902)">
        <g transform="matrix(1,0,0,1,28,148.623)">
            <circle cx="3.481" cy="3.481" r="3.481" style="fill:white;"/>
        </g>
        <g transform="matrix(1,0,0,1,28,158.245)">
            <circle cx="3.481" cy="3.481" r="3.481" style="fill:white;"/>
        </g>
        <g transform="matrix(1,0,0,1,28,139)">
            <path d="M17.496,3.499C17.496,1.568 15.928,0 13.997,0L3.499,0C1.568,0 0,1.568 0,3.499C0,5.43 1.568,6.998 3.499,6.998L13.997,6.998C15.928,6.998 17.496,5.43 17.496,3.499Z" style="fill:white;"/>
        </g>
    </g>
</svg>
