<?xml version="1.0" encoding="UTF-8" standalone="no"?>
<!DOCTYPE svg PUBLIC "-//W3C//DTD SVG 1.1//EN" "http://www.w3.org/Graphics/SVG/1.1/DTD/svg11.dtd">
<svg width="100%" height="100%" viewBox="0 0 56 56" version="1.1" xmlns="http://www.w3.org/2000/svg" xmlns:xlink="http://www.w3.org/1999/xlink" xml:space="preserve" xmlns:serif="http://www.serif.com/" style="fill-rule:evenodd;clip-rule:evenodd;stroke-linejoin:round;stroke-miterlimit:2;">
    <g transform="matrix(0.109375,0,0,0.109375,0,0)">
        <path d="M64,264C64,259.611 67.611,256 72,256C76.389,256 80,259.611 80,264C80,268.389 76.389,272 72,272C67.613,271.995 64.005,268.387 64,264ZM32,224L480,224L480,304L32,304L32,224ZM256,264C256,268.389 259.611,272 264,272L408,272C412.389,272 416,268.389 416,264C416,259.611 412.389,256 408,256L264,256C259.611,256 256,259.611 256,264ZM128,264C128,268.389 131.611,272 136,272L232,272C236.389,272 240,268.389 240,264C240,259.611 236.389,256 232,256L136,256C131.611,256 128,259.611 128,264ZM48,264C48,277.166 58.834,288 72,288C85.166,288 96,277.166 96,264C96,250.834 85.166,240 72,240C58.84,240.015 48.015,250.84 48,264ZM96,320L448,320L448,456C447.985,469.16 437.16,479.985 424,480L120,480C106.84,479.985 96.015,469.16 96,456L96,320ZM352,408C352,403.611 348.389,400 344,400L264,400C259.611,400 256,403.611 256,408C256,412.389 259.611,416 264,416L344,416C348.389,416 352,412.389 352,408ZM416,408C416,403.611 412.389,400 408,400L376,400C371.611,400 368,403.611 368,408C368,412.389 371.611,416 376,416L408,416C412.389,416 416,412.389 416,408ZM336,360C336,364.389 339.611,368 344,368L408,368C412.389,368 416,364.389 416,360C416,355.611 412.389,352 408,352L344,352C339.611,352 336,355.611 336,360ZM224,360C224,364.389 227.611,368 232,368L312,368C316.389,368 320,364.389 320,360C320,355.611 316.389,352 312,352L232,352C227.611,352 224,355.611 224,360ZM128,360C128,364.389 131.611,368 136,368L200,368C204.389,368 208,364.389 208,360C208,355.611 204.389,352 200,352L136,352C131.611,352 128,355.611 128,360ZM128,408C128,412.389 131.611,416 136,416L232,416C236.389,416 240,412.389 240,408C240,403.611 236.389,400 232,400L136,400C131.611,400 128,403.611 128,408ZM448,208L96,208L96,56C96.015,42.84 106.84,32.015 120,32L352,32L352,88C352.025,109.934 370.066,127.975 392,128L448,128L448,208ZM128,120C128,124.389 131.611,128 136,128L232,128C236.389,128 240,124.389 240,120C240,115.611 236.389,112 232,112L136,112C131.611,112 128,115.611 128,120ZM192,168C192,163.611 188.389,160 184,160L136,160C131.611,160 128,163.611 128,168C128,172.389 131.611,176 136,176L184,176C188.389,176 192,172.389 192,168ZM416,168C416,163.611 412.389,160 408,160L216,160C211.611,160 208,163.611 208,168C208,172.389 211.611,176 216,176L408,176C412.389,176 416,172.389 416,168ZM392,112L436.687,112L368,43.313L368,88C368.015,101.16 378.84,111.985 392,112Z" style="fill:white;fill-rule:nonzero;"/>
    </g>
</svg>
