<?xml version="1.0" encoding="UTF-8" standalone="no"?>
<!DOCTYPE svg PUBLIC "-//W3C//DTD SVG 1.1//EN" "http://www.w3.org/Graphics/SVG/1.1/DTD/svg11.dtd">
<svg width="100%" height="100%" viewBox="0 0 56 40" version="1.1" xmlns="http://www.w3.org/2000/svg" xmlns:xlink="http://www.w3.org/1999/xlink" xml:space="preserve" xmlns:serif="http://www.serif.com/" style="fill-rule:evenodd;clip-rule:evenodd;stroke-linejoin:round;stroke-miterlimit:2;">
    <g transform="matrix(2.23606,0,0,2.23606,0,0.00894426)">
        <path d="M18.5,17.85C18.5,17.85 17.73,16.928 17.081,16.132C18.631,15.768 20.006,14.872 20.965,13.6C20.193,14.112 19.366,14.536 18.5,14.865C17.498,15.281 16.455,15.59 15.388,15.787C13.55,16.124 11.665,16.118 9.829,15.767C8.749,15.565 7.691,15.256 6.672,14.845C6.134,14.637 5.611,14.393 5.106,14.115C5.04,14.074 4.979,14.049 4.913,14.009C4.872,13.989 4.847,13.968 4.827,13.968C4.442,13.755 4.227,13.603 4.227,13.603C5.149,14.849 6.477,15.736 7.982,16.111C7.338,16.927 6.543,17.869 6.543,17.869C1.8,17.723 0,14.632 0,14.632C0.072,10.315 1.129,6.072 3.091,2.226C4.817,0.884 6.916,0.106 9.1,0L9.313,0.258C7.253,0.753 5.33,1.707 3.689,3.047C2.048,4.387 4.16,2.789 4.956,2.447C6.502,1.754 8.144,1.297 9.826,1.094C9.946,1.07 10.068,1.057 10.191,1.053C13.909,0.561 17.69,1.261 20.985,3.053C19.42,1.777 17.598,0.852 15.644,0.341L15.944,-0.004C18.129,0.101 20.229,0.88 21.954,2.226C23.916,6.072 24.973,10.315 25.045,14.632C23.525,16.712 21.075,17.916 18.5,17.85ZM16.455,7.917C15.24,7.959 14.264,8.97 14.264,10.186C14.264,10.217 14.265,10.248 14.266,10.279C14.222,11.526 15.208,12.59 16.455,12.641C17.67,12.599 18.646,11.588 18.646,10.372C18.646,10.341 18.645,10.31 18.644,10.279C18.688,9.032 17.702,7.968 16.455,7.917ZM8.62,7.917C7.405,7.959 6.429,8.97 6.429,10.186C6.429,10.217 6.43,10.248 6.431,10.279C6.387,11.526 7.373,12.589 8.62,12.64C9.835,12.598 10.811,11.587 10.811,10.371C10.811,10.34 10.81,10.309 10.809,10.278C10.811,10.241 10.812,10.204 10.812,10.167C10.812,8.955 9.832,7.949 8.62,7.917Z" style="fill:white;fill-rule:nonzero;"/>
    </g>
</svg>
