<?xml version="1.0" encoding="UTF-8" standalone="no"?>
<!DOCTYPE svg PUBLIC "-//W3C//DTD SVG 1.1//EN" "http://www.w3.org/Graphics/SVG/1.1/DTD/svg11.dtd">
<svg width="100%" height="100%" viewBox="0 0 1000 1000" version="1.1" xmlns="http://www.w3.org/2000/svg" xmlns:xlink="http://www.w3.org/1999/xlink" xml:space="preserve" xmlns:serif="http://www.serif.com/" style="fill-rule:evenodd;clip-rule:evenodd;stroke-linejoin:round;stroke-miterlimit:2;">
    <g>
        <rect x="184" y="314.1" width="360.4" height="32.8" style="fill:white;fill-rule:nonzero;"/>
        <rect x="184" y="445.3" width="210.2" height="32.8" style="fill:white;fill-rule:nonzero;"/>
        <rect x="184" y="576.5" width="150.2" height="32.8" style="fill:white;fill-rule:nonzero;"/>
        <rect x="184" y="707.7" width="90.1" height="32.8" style="fill:white;fill-rule:nonzero;"/>
        <path d="M419.2,706.8L419.2,882.7L580.3,882.7L419.2,706.8Z" style="fill:white;fill-rule:nonzero;"/>
        <path d="M443.9,677.4L607.5,856.1L905.7,530.5L742.1,351.8L443.9,677.4Z" style="fill:white;fill-rule:nonzero;"/>
        <path d="M799.6,829.1C799.6,887.4 753.3,934.6 696.2,934.6L172.5,934.6C115.4,934.6 69.1,887.3 69.1,829.1L69.1,232.6C69.1,174.3 115.4,127.1 172.5,127.1L184,127.1L184,163.6C184,182.9 199.1,198.5 217.7,198.5C236.3,198.5 251.4,182.9 251.4,163.6L251.4,127L304.2,127L304.2,163.5C304.2,182.8 319.3,198.4 337.9,198.4C356.5,198.4 371.6,182.8 371.6,163.5L371.6,127L424.4,127L424.4,163.5C424.4,182.8 439.5,198.4 458.1,198.4C476.7,198.4 491.8,182.8 491.8,163.5L491.8,127L544.6,127L544.6,163.5C544.6,182.8 559.7,198.4 578.3,198.4C596.9,198.4 612,182.8 612,163.5L612,127L696.5,127C753.6,127 799.9,174.3 799.9,232.5L799.9,246.7L859,246.7L859,191.7C859,125.4 806.3,71.7 741.4,71.7L611.7,71.7L611.7,44.9C611.7,25.6 596.6,10 578,10C559.4,10 544.3,25.6 544.3,44.9L544.3,71.7L491.5,71.7L491.5,44.9C491.5,25.6 476.4,10 457.8,10C439.2,10 424.1,25.6 424.1,44.9L424.1,71.7L371.3,71.7L371.3,44.9C371.3,25.6 356.2,10 337.6,10C319,10 303.9,25.6 303.9,44.9L303.9,71.7L251.1,71.7L251.1,44.9C251.1,25.6 236,10 217.4,10C198.8,10 184,25.6 184,44.9L184,71.7L127.6,71.7C62.6,71.7 10,125.4 10,191.7L10,870C10,936.3 62.7,990 127.6,990L741,990C806,990 858.6,936.3 858.6,870L858.6,745.6L799.5,745.6L799.5,829.1L799.6,829.1Z" style="fill:white;fill-rule:nonzero;"/>
        <path d="M969.6,364L890.6,285.8C864.7,260.1 824,260.7 799.7,287C775.4,313.3 760.4,333.8 760.4,333.8L925.9,508.2C925.9,508.2 948.4,484.6 972.7,458.2C996.9,431.9 995.6,389.7 969.6,364Z" style="fill:white;fill-rule:nonzero;"/>
    </g>
</svg>
